<?xml version="1.0" standalone="no"?>
<!DOCTYPE svg PUBLIC "-//W3C//DTD SVG 20010904//EN"
 "http://www.w3.org/TR/2001/REC-SVG-20010904/DTD/svg10.dtd">
<svg version="1.0" xmlns="http://www.w3.org/2000/svg"
 width="1000.000000pt" height="1000.000000pt" viewBox="0 0 1000.000000 1000.000000"
 preserveAspectRatio="xMidYMid meet">
<metadata>
Created by potrace 1.11, written by Peter Selinger 2001-2013
</metadata>
<g transform="translate(0.000000,1000.000000) scale(0.100000,-0.100000)"
fill="#000000" stroke="none">
<path d="M7594 8259 c-83 -37 -134 -114 -246 -369 -27 -63 -56 -128 -63 -145
-7 -16 -30 -70 -50 -119 -100 -238 -279 -594 -488 -971 -27 -49 -66 -119 -85
-155 -46 -85 -371 -653 -422 -737 -22 -36 -40 -66 -40 -68 0 -2 -28 -50 -61
-107 -34 -56 -114 -204 -177 -328 -96 -189 -157 -306 -258 -500 -11 -20 -47
-39 -176 -89 -90 -35 -176 -70 -193 -76 -16 -7 -68 -27 -115 -45 -195 -75
-287 -143 -311 -232 -13 -51 -6 -181 12 -219 8 -15 28 -37 46 -49 28 -19 41
-22 87 -16 47 5 89 20 255 92 20 9 51 22 69 30 17 7 32 12 32 10 0 -4 -58
-143 -242 -581 -136 -323 -145 -344 -147 -358 0 -4 -7 -20 -15 -35 -33 -65
-157 -455 -225 -707 -113 -423 -116 -524 -17 -658 68 -93 196 -134 271 -87 55
34 93 100 111 190 126 642 372 1359 696 2030 44 91 105 217 136 280 30 63 60
118 66 122 11 7 55 25 251 101 411 160 1108 376 1386 431 13 2 64 14 113 26
48 12 90 19 92 17 5 -4 -14 -52 -64 -157 -44 -95 -124 -272 -193 -428 -34 -75
-69 -155 -79 -177 -10 -22 -34 -78 -55 -125 -20 -47 -43 -98 -50 -115 -30 -66
-248 -585 -251 -595 0 -3 -5 -16 -11 -30 -6 -14 -27 -68 -48 -120 -20 -52 -41
-104 -46 -115 -47 -109 -176 -484 -214 -628 -37 -137 -36 -133 -41 -234 -3
-73 1 -103 17 -150 50 -145 169 -251 269 -238 113 14 175 122 235 411 18 82
125 452 176 604 73 220 208 583 259 695 5 11 28 65 50 120 23 55 50 118 60
140 10 22 39 85 63 140 100 223 348 729 447 910 18 33 51 94 73 135 44 83 51
93 69 96 7 1 33 5 58 9 25 4 65 10 89 15 25 4 112 9 195 9 174 2 218 12 287
68 119 98 162 242 93 316 -36 39 -76 57 -159 71 -57 10 -265 13 -312 5 -30 -5
-32 4 -8 41 14 22 25 42 25 45 0 3 20 40 44 83 24 42 54 95 66 117 12 22 54
94 94 160 39 66 76 128 81 137 6 10 48 80 95 155 47 76 89 145 95 155 5 9 42
66 80 127 39 61 79 126 90 144 10 17 47 75 80 127 329 510 437 721 452 885 13
144 -68 259 -192 272 -99 10 -165 -46 -263 -224 -30 -54 -118 -199 -195 -323
-224 -359 -257 -413 -387 -630 -163 -271 -280 -471 -280 -478 0 -3 -6 -13 -14
-21 -7 -9 -26 -38 -41 -66 -15 -27 -83 -149 -151 -270 -67 -121 -160 -290
-206 -375 l-84 -155 -299 -82 c-165 -45 -329 -91 -365 -102 -36 -11 -231 -68
-435 -127 -203 -59 -451 -131 -550 -159 -99 -29 -181 -52 -182 -51 -7 7 148
335 187 396 5 8 38 65 73 125 35 61 128 218 207 350 78 132 154 260 168 285
14 25 68 119 120 210 52 91 106 185 119 210 13 25 34 63 46 85 110 195 294
551 385 745 238 509 294 786 175 879 -55 44 -163 53 -239 20z"/>
<path d="M0 4219 l0 -2499 25 -1 c33 0 427 0 460 0 l25 1 2 1182 3 1183 1358
0 c765 0 1361 -4 1364 -9 3 -4 6 -535 6 -1177 0 -752 3 -1172 10 -1176 8 -5
262 -7 457 -4 l45 1 -3 2499 -2 2500 -253 -2 -252 -2 -2 -1065 c-1 -586 -2
-1073 -2 -1082 -1 -17 -73 -18 -1366 -18 l-1365 0 0 1085 0 1084 -255 -1 -255
0 0 -2499z"/>
</g>
</svg>
