<svg width="112" height="112" xmlns="http://www.w3.org/2000/svg"><g fill="none" fill-rule="evenodd"><circle fill="#EFEDFD" cx="56" cy="56" r="56"/><path d="M57.066 42.105c3.905 0 7.36-1.793 9.6-4.608a10.357 10.357 0 0 0-6.4-5.952c2.048-1.153 3.455-3.328 3.455-5.888A6.649 6.649 0 0 0 57.066 19a6.649 6.649 0 0 0-6.654 6.655c0 2.495 1.407 4.735 3.455 5.887-2.88.96-5.248 3.135-6.4 5.953a12.202 12.202 0 0 0 9.6 4.61zM78.4 82.636c3.905 0 7.36-1.793 9.6-4.608a10.357 10.357 0 0 0-6.4-5.952c2.047-1.153 3.454-3.328 3.454-5.888a6.649 6.649 0 0 0-6.654-6.655 6.649 6.649 0 0 0-6.655 6.655c0 2.495 1.408 4.735 3.455 5.888-2.88.96-5.247 3.135-6.4 5.952a12.207 12.207 0 0 0 9.6 4.608zm-44.8 0c3.905 0 7.36-1.793 9.6-4.608a10.357 10.357 0 0 0-6.4-5.952c2.047-1.153 3.454-3.328 3.454-5.888a6.649 6.649 0 0 0-6.654-6.655c-3.713-.002-6.655 3.005-6.655 6.718 0 2.495 1.408 4.735 3.455 5.887-2.945.898-5.247 3.073-6.4 5.888a12.202 12.202 0 0 0 9.6 4.61zm12.58-40.169l2.786 1.575-7.248 12.812-2.785-1.575zM43.2 67h25.6v-3.2H43.2zm24.118-24.533l7.243 12.814-2.785 1.575-7.243-12.814z" fill="#A29BF7"/></g></svg>