<svg width="112" height="112" xmlns="http://www.w3.org/2000/svg"><g fill="none" fill-rule="evenodd"><circle fill="#FFF8E1" cx="56" cy="56" r="56"/><path d="M82.02 35.061c-1.99-.44-4.288-.158-6.45.661.02-1.17.014-2.318-.018-3.416h-37.1a72.043 72.043 0 0 0-.02 3.416c-2.164-.816-4.46-1.101-6.45-.66-2.943.65-4.942 2.677-5.625 5.706-.894 3.953 1.074 8.487 5.548 12.767 3.522 3.37 8.25 6.174 13.242 7.91 2.068 2.924 4.717 5.279 8.076 6.71-.49 1.794-2.21 6.99-6.362 10.17L57 78.32h10.146c-4.154-3.18-5.874-8.376-6.362-10.17 3.36-1.431 6.008-3.787 8.076-6.711 4.99-1.732 9.718-4.536 13.243-7.907 4.47-4.28 6.442-8.81 5.547-12.766-.691-3.027-2.69-5.055-5.63-5.705zM34.877 50.406c-3.233-3.096-4.848-6.34-4.317-8.682.31-1.383 1.058-2.156 2.351-2.444 1.707-.379 3.93.196 5.762 1.332.415 4.958 1.393 10.133 3.22 14.725-2.63-1.37-5.047-3.045-7.015-4.93zm44.245 0c-1.969 1.886-4.385 3.561-7.015 4.931 1.827-4.592 2.804-9.77 3.22-14.725 1.832-1.136 4.055-1.708 5.761-1.332 1.291.285 2.039 1.061 2.352 2.444.53 2.342-1.085 5.586-4.318 8.683zM43.971 86.694H70.03v-5.648H43.97z" fill="#FFDB6A"/></g></svg>