<svg width="112" height="112" xmlns="http://www.w3.org/2000/svg"><g fill="none" fill-rule="evenodd"><circle fill="#FDEBF0" cx="56" cy="56" r="56"/><path d="M83.433 33.8c-2.565-2.59-6.514-4.852-12.118-4.799-9.69.692-12.88 6.776-15.24 11.75-2.331-5.074-6.22-11.855-16.312-11.75-8.262.53-13.202 5.57-14.994 11.874-2.181 7.692.624 16.17 4.08 20.993 3.568 4.977 8.758 9.116 13.314 13.078 4.837 4.204 7.894 5.809 14.034 10.88 6.093-5.6 15.667-11.585 23.627-19.874 3.612-3.915 6.766-7.988 7.794-14.757 1.103-7.165-.152-13.32-4.185-17.394zm-27.33 40.195c-2.147 0-3.833-1.611-3.833-3.758 0-2.223 1.686-3.909 3.834-3.909 1.991 0 3.758 1.687 3.758 3.909 0 2.147-1.764 3.758-3.758 3.758zm6.9-8.727c-3.907-3.833-9.889-3.833-14.03 0-1.611 1.456-5.061-1.38-1.995-4.294 4.831-4.444 13.57-4.444 17.939 0 3.223 2.917-.228 5.909-1.914 4.294zm4.448-7.953c-6.364-5.98-16.408-5.98-22.691 0-3.223 3.297-7.667 0-3.45-3.68 9.047-7.82 20.238-7.82 29.9.077 3.6 3.68-.308 6.825-3.758 3.603z" fill="#F597B2"/></g></svg>