<svg width="26" height="26" xmlns="http://www.w3.org/2000/svg"><g stroke="#F6455B" fill="none" fill-rule="evenodd" stroke-linecap="round" stroke-linejoin="round"><path d="M24.6 13c0 6.407-5.193 11.6-11.6 11.6S1.4 19.407 1.4 13 6.593 1.4 13 1.4 24.6 6.593 24.6 13"/><path d="M13 23C7.477 23 3 18.524 3 13S7.477 3 13 3s10 4.477 10 10c-.006 5.52-4.48 9.994-10 10z"/><path d="M13.358 19.784c.163.011.28.011.342.016h.045a4.663 4.663 0 0 0 4.456-4.733c0-2.778-5.478-4.636-4.562-9.267-2.281 2.267-4.068 5.88-4.068 8.659 0 .167.01.334.025.495A4.006 4.006 0 0 1 7 13.877c0 4.254 3.482 5.455 5.442 5.79" stroke-width="2"/><path d="M13.4 12.6c1.2 1.165 2.4 3.336 2.4 4.765a2.4 2.4 0 1 1-4.8 0c0-1.429 2.88-2.382 2.4-4.765zM9.4 19.8h8" stroke-width="2"/></g></svg>