<svg width="112" height="112" xmlns="http://www.w3.org/2000/svg"><g fill="none" fill-rule="evenodd"><circle cx="56" cy="56" r="56" fill="#F1F5FE"/><path d="M79.916 46.995a24.086 24.086 0 0 1 1.684 8.853c0 13.301-10.766 24.12-24 24.12s-24-10.819-24-24.12c0-13.3 10.766-24.12 24-24.12 2.128 0 4.19.283 6.153.808l4.444-4.463A29.38 29.38 0 0 0 57.6 26.1C41.253 26.1 28 39.42 28 55.848c0 16.43 13.253 29.748 29.6 29.748s29.6-13.319 29.6-29.748a29.72 29.72 0 0 0-3.034-13.12l-4.25 4.267z" fill="#95B5F4"/><path d="M57.6 42.988c1.134 0 2.228.17 3.268.464l2.982-3.212a15.872 15.872 0 0 0-6.25-1.275c-8.838 0-16 7.198-16 16.08 0 8.878 7.162 16.08 16 16.08 8.834 0 16-7.202 16-16.08a16 16 0 0 0-1.638-7.048l-2.99 3.225c.402 1.203.627 2.488.627 3.823 0 6.648-5.384 12.06-12 12.06-6.615 0-12-5.412-12-12.06 0-6.65 5.385-12.057 12-12.057z" fill="#9FB5F4"/><path d="M67.221 34.86v7.179l-8.778 9.082a3.925 3.925 0 0 0-.844-.094c-2.21 0-4 1.8-4 4.02 0 2.22 1.79 4.02 4 4.02s4-1.8 4-4.02c0-.424-.084-.826-.206-1.209l8.837-9.142h6.778l13.79-13.86-6.537-.656 3.382-3.495-2.87-2.802-3.15 3.26L81.012 21l-13.79 13.86z" fill="#95B5F4"/></g></svg>