<svg width="56" height="56" xmlns="http://www.w3.org/2000/svg"><g fill="#FEB64D" fill-rule="evenodd"><path d="M50.793 24.15L38.84 12.199a.725.725 0 0 0-.995 0l-4.335 4.335-.777.703c-1.004.909-1.937 1-3.117 1.118-.638.063-1.297.128-2.016.33a13.01 13.01 0 0 0-1.478.506l-6.968-6.992a.725.725 0 0 0-.995 0L6.206 24.15a.704.704 0 0 0 0 .995L10.56 29.5a.704.704 0 0 0 .995 0l.51-.51 1.61 1.638c-.144.094-.28.203-.405.326l-.102.102a2.673 2.673 0 0 0-.787 1.905 2.687 2.687 0 0 0 2.693 2.693c.037 0 .072-.009.109-.01-.004.056-.016.109-.016.165 0 .722.28 1.397.788 1.905a2.684 2.684 0 0 0 1.905.788c.046 0 .092-.01.137-.012-.001.045-.014.09-.014.135 0 .722.28 1.397.788 1.905a2.684 2.684 0 0 0 1.905.788c.046 0 .092-.01.137-.012-.001.045-.014.09-.014.135 0 .722.28 1.4.788 1.906a2.684 2.684 0 0 0 1.905.787 2.69 2.69 0 0 0 1.908-.79l.19-.19a2.74 2.74 0 0 0 .274-.333l2.415 2.405a2.635 2.635 0 0 0 1.868.773c.677 0 1.354-.257 1.867-.772a2.63 2.63 0 0 0 .761-1.98c.037.001.073.01.11.01.676 0 1.353-.257 1.866-.772a2.62 2.62 0 0 0 .772-1.868c0-.039-.009-.074-.01-.113.036.002.075.01.112.01.677 0 1.353-.256 1.868-.77a2.63 2.63 0 0 0 .762-1.982c.036.002.073.01.112.01.677 0 1.354-.256 1.869-.771a2.643 2.643 0 0 0 .005-3.729l4.498-4.48.703.703a.704.704 0 0 0 .995 0l4.354-4.354a.693.693 0 0 0 .002-.99zm-43.096.498l10.959-10.96 3.36 3.36-10.96 10.96-3.359-3.36zm6.464 9.224a1.277 1.277 0 0 1-.375-.91c0-.347.134-.67.375-.913l.102-.102a1.28 1.28 0 0 1 .912-.376 1.28 1.28 0 0 1 1.287 1.286c0 .347-.134.67-.375.913l-.102.102a1.292 1.292 0 0 1-1.824 0zm2.786 2.85a1.278 1.278 0 0 1-.374-.913c0-.345.133-.67.374-.91l1.492-1.493c.252-.252.582-.376.913-.376a1.285 1.285 0 0 1 1.286 1.288c0 .345-.133.67-.374.91l-1.492 1.495a1.292 1.292 0 0 1-1.825-.002zm2.818 2.817a1.278 1.278 0 0 1-.375-.912c0-.345.134-.67.375-.91l.887-.887a1.28 1.28 0 0 1 .911-.376c.346 0 .67.134.912.376a1.29 1.29 0 0 1 0 1.823l-.886.886a1.292 1.292 0 0 1-1.824 0zm4.83 2.628l-.19.19a1.29 1.29 0 0 1-1.823 0 1.278 1.278 0 0 1-.374-.913c0-.344.134-.668.374-.91l.194-.194a1.286 1.286 0 0 1 1.82.002c.242.243.373.566.373.913 0 .344-.133.67-.374.91v.002zm14.648-6.158a1.237 1.237 0 0 1-1.747 0l-2.507-2.505a.704.704 0 0 0-.995.995l2.507 2.505a1.24 1.24 0 0 1 0 1.749 1.24 1.24 0 0 1-1.749 0l-2.505-2.507a.704.704 0 0 0-.995.995l2.505 2.507c.232.232.36.543.36.873 0 .333-.128.642-.36.874a1.237 1.237 0 0 1-1.735.01l-.009-.01-2.505-2.505a.704.704 0 0 0-.499-.205.704.704 0 0 0-.5 1.2l2.506 2.505c.003.004.009.007.012.01.473.484.47 1.26-.009 1.74a1.24 1.24 0 0 1-1.749-.003l-2.904-2.891c.002-.03.01-.058.01-.088a2.673 2.673 0 0 0-2.272-2.653c.315-.94.11-2.018-.636-2.765-.422-.422-.978-.657-1.554-.73.077-.253.13-.516.13-.789 0-.722-.28-1.397-.788-1.905a2.691 2.691 0 0 0-3.494-.259 2.666 2.666 0 0 0-.682-1.198c-.496-.496-1.176-.748-1.86-.758L13.055 28l9.951-9.955 1.793 1.808c-1.097.66-1.854 1.43-2.674 2.268-.17.174-.344.353-.527.536l-.839.839a2.703 2.703 0 0 0-.794 1.923c0 .727.283 1.411.794 1.923a2.703 2.703 0 0 0 1.924.794c.727 0 1.411-.283 1.923-.794l2.174-2.175c.564-.564 1.371-.172 3.217.93.715.427 1.533.91 2.447 1.341l6.799 6.82a1.24 1.24 0 0 1 0 1.75zm.007-3.732l-3.828-3.84c.613.119 1.251.196 1.928.196.2 0 .406-.007.614-.02a.704.704 0 0 0 .659-.745.691.691 0 0 0-.746-.659c-2.972.181-5.293-1.206-7.16-2.32-1.817-1.086-3.536-2.111-4.93-.717l-2.174 2.174a1.307 1.307 0 0 1-.93.383 1.307 1.307 0 0 1-1.313-1.313c0-.353.135-.682.383-.93l.838-.838c.187-.187.366-.37.538-.547 1.331-1.36 2.293-2.345 4.852-3.066.601-.168 1.197-.228 1.773-.284 1.266-.125 2.574-.255 3.922-1.475l.288-.26 9.783 9.782-4.497 4.48zm6.692-4.27l-.7-.7-.001-.003-.004-.002L34.984 17.05l3.36-3.36 10.958 10.96-3.36 3.358z"/><circle fill-opacity=".15" cx="28" cy="28" r="28"/></g></svg>