<svg width="112" height="112" xmlns="http://www.w3.org/2000/svg"><g fill="#B1D257" fill-rule="evenodd"><circle fill-opacity=".2" cx="56" cy="56" r="56"/><path d="M27.765 65.401c1.024.427 2.048.766 3.075 1.023 2.65.596 5.295.94 8.027.94 2.649 0 5.38-.257 7.943-.94 1.024-.257 2.135-.596 3.076-1.023 1.538-.766 2.135-2.559 1.538-4.095l-9.141-21.153h12.553v35.14h-6.405a3.148 3.148 0 0 0-3.16 3.155v3.242h-4.783c-.854 0-1.621.683-1.621 1.536v3.155c0 .853.684 1.619 1.538 1.619h35.272c.854 0 1.538-.766 1.538-1.62v-3.154c0-.853-.684-1.62-1.538-1.62h-4.784v-3.241c0-1.793-1.451-3.156-3.16-3.242h-6.405l-.003-34.97h12.47l-9.137 21.153c-.684 1.536 0 3.412 1.538 4.095a21.7 21.7 0 0 0 3.076 1.023c2.649.596 5.294.94 7.943.94s5.381-.257 7.943-.94c1.024-.257 2.135-.597 3.076-1.023 1.538-.766 2.135-2.559 1.538-4.095l-9.057-21.153h2.902c1.795 0 3.246-1.45 3.246-3.155 0-1.706-1.45-3.242-3.246-3.242H61.243V29.32c1.965-1.792 2.135-4.778.34-6.737-1.795-1.962-4.784-2.132-6.745-.34-1.965 1.793-2.135 4.778-.34 6.737.086.17.256.257.34.34v4.435H32.376a3.241 3.241 0 0 0-3.246 3.242c0 1.792 1.451 3.155 3.246 3.155h2.99l-9.138 21.153c-.597 1.536 0 3.325 1.538 4.095h-.001zm54.74-4.948c-1.708.34-3.502.514-5.294.427-1.795 0-3.503-.087-5.294-.427l5.381-12.197s4.78 11.258 5.208 12.197zM38.868 48.256S43.65 59.43 44.16 60.453c-1.708.34-3.503.514-5.294.427-1.795 0-3.503-.087-5.294-.427l5.294-12.197z"/></g></svg>