<svg width="112" height="112" xmlns="http://www.w3.org/2000/svg"><g fill="none" fill-rule="evenodd"><circle fill-opacity=".11" fill="#417DF8" cx="56" cy="56" r="56"/><path d="M47.039 18.001a2.492 2.492 0 0 0-.206.017 2.283 2.283 0 0 0-2.023 2.294V42.55c-.585.953-15.062 24.482-22.452 35.937-.962 1.519.128 3.504 1.926 3.507h42.957c.12.008.237.008.357 0h25.118c1.798-.003 2.888-1.988 1.926-3.507L76.366 49.386a2.285 2.285 0 0 0-1.89-1.08 2.28 2.28 0 0 0-1.952 1.046L62.888 64.21l-4.77-7.656-1.098-1.777s-7.499-12.022-7.653-12.271v-6.211h11.426c2.004-.023 3.008-2.433 1.615-3.873l-2.962-2.973 2.962-2.935c1.453-1.44.428-3.916-1.615-3.91H49.367v-2.293a2.283 2.283 0 0 0-2.33-2.31h.002zm2.33 9.156h5.896l-.68.676a2.286 2.286 0 0 0 0 3.23l.68.68h-5.897v-4.586zm-2.293 20.338c.628 1.003 3.97 6.372 5.743 9.202l-1.293 1.428-2.871-2.876a2.28 2.28 0 0 0-1.616-.668 2.297 2.297 0 0 0-1.587.668l-2.829 2.838-1.264-1.419c1.727-2.793 5.11-8.184 5.717-9.173zm27.338 7.354l2.32 3.704-2.354 2.133-2.435-2.044 2.47-3.793zm-27.338 5.266l2.926 2.936a2.282 2.282 0 0 0 3.308-.071l2.026-2.268c3.788 6.051 6.562 10.463 10.444 16.732H28.398c4.05-6.374 6.693-10.698 10.427-16.714l1.944 2.213a2.283 2.283 0 0 0 3.336.108l2.971-2.936zm32.12 2.365l9.373 14.967h-17.42c-1.858-3.013-3.148-5.043-5.6-8.987l3.879-5.951 3.533 2.964c.877.734 2.16.708 3.006-.063l3.228-2.93z" fill="#22418F"/></g></svg>