<svg width="40" height="40" xmlns="http://www.w3.org/2000/svg"><g fill="none" fill-rule="evenodd"><circle fill-opacity=".11" fill="#417DF8" cx="20" cy="20" r="20"/><g fill="#22418F"><path d="M24.75 10.426L21 14.657l-3.757-4.23H7.37l7.494 8.448c-3.194 1.405-5.319 3.87-5.319 6.673 0 4.36 5.138 7.908 11.454 7.908 6.316 0 11.453-3.547 11.453-7.908 0-2.803-2.125-5.269-5.319-6.673l7.496-8.449h-9.88zM10.247 11.54h6.094l3.712 4.186-1.921 2.165a14.82 14.82 0 0 0-1.849.454l-6.036-6.805zM30.67 25.548c0 3.68-4.337 6.675-9.67 6.675-5.332 0-9.669-2.994-9.669-6.675 0-3.683 4.337-6.676 9.669-6.676 5.331 0 9.67 2.994 9.67 6.676zm-4.952-7.204a15.797 15.797 0 0 0-5.494-.685l5.43-6.12h6.1l-6.036 6.805z"/><path d="M13.332 25.548c0 2.92 3.44 5.294 7.668 5.294s7.67-2.375 7.67-5.294c0-2.92-3.44-5.296-7.67-5.296-4.228 0-7.668 2.376-7.668 5.296zm13.726 0c0 2.306-2.717 4.183-6.058 4.183-3.34 0-6.058-1.876-6.058-4.183s2.717-4.184 6.058-4.184c3.341 0 6.058 1.877 6.058 4.184z"/></g></g></svg>