<svg width="112" height="112" xmlns="http://www.w3.org/2000/svg"><g fill="none" fill-rule="evenodd"><circle fill-opacity=".2" fill="#F6455B" cx="56" cy="56" r="56"/><g stroke="#F6455B" stroke-linecap="round" stroke-linejoin="round"><path d="M88.931 56c0 17.637-14.294 31.931-31.93 31.931-17.637 0-31.931-14.294-31.931-31.93C25.07 38.364 39.364 24.07 57 24.07c17.637 0 31.931 14.294 31.931 31.93"/><path d="M57 83.53c-15.202 0-27.528-12.326-27.528-27.53 0-15.202 12.326-27.528 27.529-27.528s27.528 12.326 27.528 27.529c-.018 15.195-12.333 27.51-27.528 27.528z" stroke-width="2"/><path d="M57.986 74.674c.45.031.772.031.94.044h.126c6.94-.307 12.374-6.083 12.264-13.027 0-7.65-15.08-12.764-12.558-25.51-6.279 6.24-11.198 16.186-11.198 23.835 0 .46.028.919.07 1.363a11.027 11.027 0 0 1-7.146-2.965c0 11.71 9.584 15.016 14.98 15.936" stroke-width="2"/><path d="M58.103 54.898c3.303 3.208 6.606 9.185 6.606 13.118a6.605 6.605 0 0 1-3.277 5.801 6.6 6.6 0 0 1-6.66 0 6.597 6.597 0 0 1-3.276-5.801c0-3.933 7.928-6.558 6.607-13.118zM47.09 74.718h22.022" stroke-width="2"/></g></g></svg>