<svg width="40" height="40" xmlns="http://www.w3.org/2000/svg"><g fill="none" fill-rule="evenodd"><rect fill="#949699" width="40" height="40" rx="4"/><g fill="#FFF"><path d="M20 6.134C12.341 6.134 6.134 12.34 6.134 20S12.34 33.866 20 33.866 33.866 27.66 33.866 20 27.66 6.134 20 6.134zM20 32.8c-7.059 0-12.8-5.741-12.8-12.8 0-7.059 5.741-12.8 12.8-12.8 7.059 0 12.8 5.741 12.8 12.8 0 7.059-5.741 12.8-12.8 12.8z"/><path d="M14.289 21.756l.755.755L20 17.554l4.956 4.957.755-.755L20 16.046z"/></g></g></svg>